<?xml version="1.0" standalone="no"?><!DOCTYPE svg PUBLIC "-//W3C//DTD SVG 1.1//EN" "http://www.w3.org/Graphics/SVG/1.1/DTD/svg11.dtd"><svg t="1531216083808" class="icon" style="" viewBox="0 0 1024 1024" version="1.1" xmlns="http://www.w3.org/2000/svg" p-id="5268" xmlns:xlink="http://www.w3.org/1999/xlink" width="64" height="64"><defs><style type="text/css"></style></defs><path d="M395.584 260.032m-165.824 0a2.591 2.591 0 1 0 331.648 0 2.591 2.591 0 1 0-331.648 0Z" p-id="5269"></path><path d="M38.4 780.928c0-198.464 160.896-359.296 359.296-359.296s359.296 160.896 359.296 359.296" p-id="5270"></path><path d="M766.72 447.552m-100.416 0a1.569 1.569 0 1 0 200.832 0 1.569 1.569 0 1 0-200.832 0Z" p-id="5271"></path><path d="M783.36 780.928c1.152-118.592-40-187.328-86.4-223.68C678.4 542.72 743.104 545.408 768 545.408c120.128 0 217.6 115.328 217.6 235.52" p-id="5272"></path></svg>