<?xml version="1.0" standalone="no"?><!DOCTYPE svg PUBLIC "-//W3C//DTD SVG 1.1//EN" "http://www.w3.org/Graphics/SVG/1.1/DTD/svg11.dtd"><svg t="1531221486069" class="icon" style="" viewBox="0 0 1024 1024" version="1.1" xmlns="http://www.w3.org/2000/svg" p-id="10788" xmlns:xlink="http://www.w3.org/1999/xlink" width="64" height="64"><defs><style type="text/css"></style></defs><path d="M264.448 359.168l498.88 0c22.496 0 40.736-18.24 40.736-40.704s-18.24-40.704-40.736-40.704L264.448 277.76c-22.496 0-40.736 18.24-40.736 40.704S241.952 359.168 264.448 359.168L264.448 359.168zM264.416 739.136l214.112 0.032 0 0c22.464 0 40.704-18.208 40.704-40.704 0-22.464-18.24-40.704-40.704-40.704l-214.08 0 0 0c-22.496 0-40.736 18.208-40.736 40.672C223.712 720.928 241.92 739.136 264.416 739.136L264.416 739.136zM264.448 549.184l498.88 0c22.496 0 40.736-18.272 40.736-40.736 0-22.496-18.24-40.704-40.736-40.704L264.448 467.744c-22.496 0-40.736 18.208-40.736 40.704C223.712 530.912 241.952 549.184 264.448 549.184L264.448 549.184zM767.072 78.208 260.672 78.208c-107.328 0-194.688 87.328-194.688 194.656l0 479.232c0 107.328 87.36 194.752 194.688 194.752l215.84 0c22.496 0 40.704-18.24 40.704-40.704 0-22.496-18.24-40.704-40.704-40.704L260.672 865.44c-62.432 0-113.28-50.848-113.28-113.312L147.392 272.864c0-62.432 50.816-113.248 113.28-113.248l506.368 0c62.464 0 113.28 50.848 113.28 113.248l0 340.416-79.616 0c-97.28 0-176.448 79.168-176.448 176.448l0 111.776c0 9.792 3.456 18.72 9.184 25.76 7.136 11.712 20.064 19.584 34.784 19.584l44.512 0c20.544 0 44.032-10.88 76.096-35.232 22.56-17.088 48.096-39.904 73.888-66.08 24.96-25.248 47.936-51.52 64.672-73.92 24.064-32.16 34.336-54.24 34.336-73.856L961.728 272.864C961.76 165.568 874.4 78.208 767.072 78.208L767.072 78.208zM804.256 788.896c-50.08 50.656-83.904 72.768-94.048 76.512l-4.512 0L705.696 789.76c0-52.416 42.624-95.04 95.008-95.04l79.52 0C875.072 707.328 848.832 743.808 804.256 788.896L804.256 788.896zM804.256 788.896" p-id="10789"></path></svg>