<?xml version="1.0" standalone="no"?><!DOCTYPE svg PUBLIC "-//W3C//DTD SVG 1.1//EN" "http://www.w3.org/Graphics/SVG/1.1/DTD/svg11.dtd"><svg t="1532854337569" class="icon" style="" viewBox="0 0 1115 1024" version="1.1" xmlns="http://www.w3.org/2000/svg" p-id="1450" xmlns:xlink="http://www.w3.org/1999/xlink" width="69.6875" height="64"><defs><style type="text/css"></style></defs><path d="M1114.707842 306.034945c-0.832182-1.87241-1.87241-3.952865-2.912637-5.617229l-154.577814-260.056887L836.34295 306.242991l278.364892-0.208046" fill="#f4ea2a" p-id="1451"></path><path d="M350.140593 306.034945h412.762292L556.521739 13.106867l-206.381146 292.928078" fill="#f4ea2a" p-id="1452"></path><path d="M514.080455 0H222.608696c-11.442503 0-23.717188 4.16091-34.119464 10.818367l124.827306 274.203982L514.080455 0M926.010565 7.489638C916.856562 2.704592 907.078423 0 897.716375 0H598.754978l200.971962 285.022349L926.010565 7.489638" fill="#f4ea2a" p-id="1453"></path><path d="M338.281999 348.268184l217.615604 675.52377c0.624137 0 1.040228 0.208046 1.456318 0.208046l217.199513-675.523771H338.281999M158.738724 47.226331L8.529866 300.417716c-1.248273 1.87241-2.288501 3.952865-3.536774 5.617229h271.499391L158.738724 47.226331" fill="#f4ea2a" p-id="1454"></path><path d="M0 348.268184l1.248273 2.080455h2.288501c2.496546 3.120683 5.825274 7.281593 9.986184 12.690776L490.987403 959.921983l-197.019097-611.653799H0M1115.540024 348.268184H818.867127l-202.01219 628.089394 490.779358-613.318163c3.536774-4.368956 6.241365-9.362048 7.905729-14.771231" fill="#f4ea2a" p-id="1455"></path></svg>