<?xml version="1.0" standalone="no"?><!DOCTYPE svg PUBLIC "-//W3C//DTD SVG 1.1//EN" "http://www.w3.org/Graphics/SVG/1.1/DTD/svg11.dtd"><svg t="1532856364087" class="icon" style="" viewBox="0 0 1024 1024" version="1.1" xmlns="http://www.w3.org/2000/svg" p-id="9520" xmlns:xlink="http://www.w3.org/1999/xlink" width="64" height="64"><defs><style type="text/css"></style></defs><path d="M510.746962 1023.986697l-24.860201-13.81361C352.123244 935.857521 253.186931 861.158215 183.428148 781.803889c-86.392626-98.274234-130.195248-207.381188-130.195248-324.287781l0-1.825578 28.497031-398.935921 425.482531-56.753585 3.535523-0.001023c0.148379 0 0.295735 0 0.448208 0.001023l3.091408 0 425.483554 56.753585 28.496008 398.935921 0 1.825578c0 116.906593-43.806715 226.013547-130.198318 324.287781-69.76083 79.354326-168.692027 154.053632-302.45452 228.369198L510.746962 1023.986697zM155.623895 459.282335c0.796132 165.609829 113.865327 308.252573 355.12409 447.321932 241.257739-139.069359 354.331028-281.712103 355.128183-447.321932l-22.293749-312.063365L510.746962 102.824877l-332.834434 44.394093L155.623895 459.282335z" p-id="9521" fill="#f4ea2a"></path><path d="M301.598524 322.769194l417.789315 0 0 54.824653L561.004599 377.593847l0 37.770232 176.150906 0 0 54.824653L561.004599 470.188732l0 97.467869 203.055672 0 0 54.824653L257.434675 622.481254l0-54.824653 202.549136 0 0-97.467869-176.151929 0 0-54.824653 176.151929 0 0-37.770232L301.598524 377.593847 301.598524 322.769194zM359.978143 312.414359l-90.361007 0-10.658757-44.469817 16.751522 0 54.317093-93.810572 105.588827 0L359.978143 312.414359zM404.650575 485.417575l18.276249 42.642193 15.735379 0-7.612375 27.414373L338.656535 555.474141l-32.996508-70.056566L404.650575 485.417575zM680.297542 174.133969l59.395762 93.810572 23.858384 0-12.183484 44.469817-94.930069 0-53.302997-78.58173L413.279093 233.832629l34.011628-59.697637L680.297542 174.134992zM715.325313 485.417575l-32.998555 70.056566-92.388177 0-7.611352-27.414373 16.240893 0 17.769712-42.642193L715.325313 485.417575z" p-id="9522" fill="#f4ea2a"></path></svg>