<?xml version="1.0" standalone="no"?><!DOCTYPE svg PUBLIC "-//W3C//DTD SVG 1.1//EN" "http://www.w3.org/Graphics/SVG/1.1/DTD/svg11.dtd"><svg t="1531216173539" class="icon" style="" viewBox="0 0 1024 1024" version="1.1" xmlns="http://www.w3.org/2000/svg" p-id="6318" xmlns:xlink="http://www.w3.org/1999/xlink" width="64" height="64"><defs><style type="text/css"></style></defs><path d="M112.12673 284.089243a390.766 200.815 0 1 0 799.74654 0 390.766 200.815 0 1 0-799.74654 0Z" p-id="6319"></path><path d="M512 551.408545c-163.335019 0-303.791981-50.327222-365.869828-122.45189-21.856797 25.394367-34.003442 53.489238-34.003442 83.043345 0 113.491821 179.029466 205.495234 399.87327 205.495234s399.87327-92.003414 399.87327-205.495234c0-29.554106-12.145621-57.648978-34.003442-83.043345C815.791981 501.081323 675.335019 551.408545 512 551.408545z" p-id="6320"></path><path d="M512 784.985348c-165.466566 0-307.456441-51.64831-368.263341-125.285424-20.35049 24.644283-31.609928 51.751664-31.609928 80.20981 0 113.491821 179.029466 205.495234 399.87327 205.495234s399.87327-92.003414 399.87327-205.495234c0-28.459169-11.259438-55.565527-31.609928-80.20981C819.456441 733.337037 677.466566 784.985348 512 784.985348z" p-id="6321"></path></svg>