<?xml version="1.0" standalone="no"?><!DOCTYPE svg PUBLIC "-//W3C//DTD SVG 1.1//EN" "http://www.w3.org/Graphics/SVG/1.1/DTD/svg11.dtd"><svg t="1531220417208" class="icon" style="" viewBox="0 0 1024 1024" version="1.1" xmlns="http://www.w3.org/2000/svg" p-id="7736" xmlns:xlink="http://www.w3.org/1999/xlink" width="64" height="64"><defs><style type="text/css"></style></defs><path d="M508.096599 516.013407c-0.378623 0.141216-0.818645 0.394996-1.139963 0.848321 0.063445-0.089028 0.130983-0.169869 0.202615-0.24457C507.448846 516.313236 507.7937 516.125971 508.096599 516.013407L508.096599 516.013407z" p-id="7737"></path><path d="M507.442706 516.578272c0.049119-0.101307 0.107447-0.193405 0.168846-0.279363C507.550153 516.383844 507.491825 516.476965 507.442706 516.578272L507.442706 516.578272z" p-id="7738"></path><path d="M507.602342 516.185322c-0.029676 0.158612-0.083911 0.330528-0.150426 0.505513C507.519454 516.514827 507.574712 516.342912 507.602342 516.185322L507.602342 516.185322z" p-id="7739"></path><path d="M507.479545 516.552689c0.027629-0.082888 0.062422-0.155543 0.095167-0.230244C507.540943 516.397147 507.507174 516.469801 507.479545 516.552689L507.479545 516.552689z" p-id="7740"></path><path d="M507.504104 516.494361c0.016373-0.034792 0.027629-0.076748 0.046049-0.112564C507.532757 516.41659 507.520477 516.458545 507.504104 516.494361L507.504104 516.494361z" p-id="7741"></path><path d="M507.52457 516.443196 507.53071 516.432962 507.52457 516.443196Z" p-id="7742"></path><path d="M507.479545 516.6366c0.023536-0.143263 0.056282-0.276293 0.095167-0.398066C507.534803 516.361331 507.503081 516.494361 507.479545 516.6366L507.479545 516.6366z" p-id="7743"></path><path d="M507.481591 516.544503c0.035816-0.073678 0.061398-0.144286 0.091074-0.213871C507.54299 516.40124 507.519454 516.472871 507.481591 516.544503L507.481591 516.544503 507.481591 516.544503z" p-id="7744"></path><path d="M507.75367 516.372173l-0.229947 0.275922 0 0 0.229947-0.275922 0 0Z" p-id="7745"></path><path d="M452.811458 737.803769c-18.445094 18.459421-41.478693 31.885198-55.608505 35.960003l-22.794146-37.654598c14.857383-4.76963 34.964326-14.889105 50.54928-30.455639 16.84976-16.771989 18.780739-32.618908 8.194636-43.178405-10.066263-10.070356-23.506367-8.15882-49.881061 4.340865-36.20355 17.514909-68.567655 20.135596-92.081185-3.375887-27.585265-27.577079-25.683962-71.695902 12.44852-109.810988 18.262946-18.252713 35.505655-27.839045 49.433876-33.107025l21.308305 37.643342c-9.559727 3.361561-25.64917 10.32209-41.476647 26.136264-15.821337 15.832594-16.280802 30.698163-7.866155 39.123043 10.250458 10.277064 23.934109 5.713119 52.717665-7.232728 39.127136-17.97949 67.398016-16.517185 90.181929 6.255471C495.039211 649.562029 497.178945 693.430142 452.811458 737.803769L452.811458 737.803769z" p-id="7746"></path><path d="M368.26283 1022.606257c-35.716456 0-69.295226-13.904685-94.547353-39.152718l-233.240135-233.245252c-52.066843-52.121078-52.067866-136.931672-0.01228-189.0681l520.601912-520.584516c25.226544-25.252127 58.818617-39.162952 94.577029-39.162952 2.013867 0 4.055362 0.046049 6.068206 0.137123l223.007073 10.19827c33.407877 1.514493 64.833611 15.371082 88.481194 39.014572 23.642466 23.639396 37.500079 55.051827 39.023782 88.452541l10.215666 223.034702c1.703805 37.493939-12.529361 74.18049-39.049365 100.662631l-520.577353 520.558933C437.558056 1008.701572 403.980309 1022.606257 368.26283 1022.606257zM655.643026 46.045709c-23.823592 0-46.196135 9.261944-62.995753 26.076912l-520.597819 520.579399c-34.669614 34.723849-34.670637 91.224678 0.008186 125.941364l233.229902 233.235019c16.818037 16.813944 39.183418 26.074865 62.975287 26.074865 23.791869 0 46.157249-9.261944 62.97631-26.076912l520.586562-520.568143c17.666358-17.640776 27.14115-42.073234 26.007327-67.043952l-10.215666-223.030609c-1.01512-22.25077-10.244318-43.171242-25.989931-58.914808-15.749706-15.747659-36.682457-24.974811-58.94039-25.984814l-223.004003-10.19827C658.350694 46.076408 656.98765 46.045709 655.643026 46.045709z" p-id="7747"></path><path d="M673.84969 511.98465 512.19494 350.337063 548.872281 313.669956 679.844218 444.62552 744.11194 380.328122 774.823406 411.04368 673.84969 511.98465Z" p-id="7748"></path><path d="M784.440437 401.348877 622.845039 239.73506 722.585671 139.965775 752.551146 169.933297 689.485809 233.020124 723.067648 266.590708 782.540158 207.114105 812.257993 236.856499 752.814136 296.299333 791.162536 334.691735 857.569992 268.285303 887.586632 298.252825 784.440437 401.348877Z" p-id="7749"></path><path d="M452.415438 410.119635l-47.922453 47.954175 112.194268 211.07737 37.855166-37.887912-29.938869-53.021587 46.27186-46.263673 53.931307 28.974915 39.331797-39.320541L452.415438 410.119635zM502.51344 545.634028l-24.685215-43.87937c-6.723122-12.000312-16.518209-26.630521-23.749914-38.612413l0.48914-0.497327c12.021801 7.223518 26.879184 16.305361 39.328727 23.013133l44.376697 24.231891L502.51344 545.634028z" p-id="7750"></path></svg>