<?xml version="1.0" standalone="no"?><!DOCTYPE svg PUBLIC "-//W3C//DTD SVG 1.1//EN" "http://www.w3.org/Graphics/SVG/1.1/DTD/svg11.dtd"><svg t="1532856767769" class="icon" style="" viewBox="0 0 1024 1024" version="1.1" xmlns="http://www.w3.org/2000/svg" p-id="11388" xmlns:xlink="http://www.w3.org/1999/xlink" width="64" height="64"><defs><style type="text/css"></style></defs><path d="M1024 96.96l0 23.424c-28.736 0-78.976 6.976-92.992 20.928-13.888 14.016-30.4 45.248-49.28 93.696L608.128 926.528l-175.424 0.512L130.624 249.792C106.752 196.352 86.272 161.408 68.992 145.024 51.712 128.64 28.736 120.384 0 120.384L0 96.96l472.448 0 0 23.424c-36.16 0-92.864 2.688-105.6 8C354.048 133.76 347.712 146.24 347.712 166.016c0 11.52 6.72 32.448 20.224 62.848 13.632 30.4 23.68 53.44 30.208 68.992l186.112 414.976 180.992-450.88c4.992-15.552 10.368-31.616 16.256-48 4.992-18.112 7.488-30.4 7.488-36.992 0-22.912-8-38.144-24-45.568-16.128-7.36-85.248-11.072-113.152-11.072L651.84 96.96 1024 96.96 1024 96.96zM1024 96.96" p-id="11389" fill="#f4ea2a"></path></svg>